<?xml version="1.0" standalone="no"?>
<!DOCTYPE svg PUBLIC "-//W3C//DTD SVG 20010904//EN"
 "http://www.w3.org/TR/2001/REC-SVG-20010904/DTD/svg10.dtd">
<svg version="1.0" xmlns="http://www.w3.org/2000/svg"
 width="600.000000pt" height="600.000000pt" viewBox="0 0 600.000000 600.000000"
 preserveAspectRatio="xMidYMid meet">
<metadata>
Created by potrace 1.15, written by Peter Selinger 2001-2017
</metadata>
<g transform="translate(0.000000,600.000000) scale(0.100000,-0.100000)"
fill="#4A2B7E" stroke="none">
<path d="M442 2988 l3 -2533 1712 -3 c1628 -2 1712 -1 1706 15 -4 10 -41 70
-82 134 -42 64 -101 156 -133 205 -31 49 -125 195 -209 324 -83 129 -197 305
-251 390 -55 85 -161 250 -236 367 -75 116 -173 267 -216 335 -43 67 -120 186
-171 263 -50 77 -123 190 -161 252 l-69 112 -5 -889 -5 -889 -23 -23 -23 -23
-584 -3 c-656 -3 -635 -5 -655 66 -8 26 -10 591 -8 1925 l3 1889 28 24 28 24
368 0 c337 0 370 -2 388 -17 11 -10 96 -135 188 -278 93 -143 250 -384 350
-535 99 -151 212 -323 250 -383 39 -59 137 -210 220 -335 82 -125 217 -331
300 -459 153 -237 540 -830 670 -1028 40 -60 146 -222 237 -360 90 -137 181
-278 202 -312 l39 -63 273 0 274 0 0 1795 0 1795 -195 0 -195 0 0 -1421 0
-1421 -29 -29 c-58 -57 -102 -37 -177 82 -33 51 -113 175 -179 275 -66 101
-169 259 -229 351 -60 92 -165 254 -233 358 -68 105 -194 298 -280 430 -86
132 -208 320 -272 417 -64 98 -179 275 -256 394 -77 119 -198 305 -270 415
-71 109 -184 282 -250 384 -66 102 -166 255 -222 341 -57 86 -103 160 -103
165 0 5 -308 9 -760 9 l-760 0 2 -2532z"/>
<path d="M2173 5501 c4 -17 220 -351 657 -1019 75 -114 175 -268 224 -342 527
-810 650 -997 662 -1010 12 -12 14 110 14 877 l0 892 26 20 c26 21 35 21 619
21 l592 0 24 -26 24 -26 0 -1915 0 -1915 -28 -24 -28 -24 -354 0 c-194 0 -365
4 -378 9 -23 9 -79 90 -396 576 -61 94 -175 268 -254 387 -78 119 -198 303
-267 409 -69 106 -183 281 -255 390 -71 109 -186 284 -255 390 -69 106 -179
275 -245 376 -66 100 -187 287 -270 414 -82 126 -164 251 -182 277 -17 26 -66
101 -109 167 -43 66 -115 177 -161 248 l-83 127 -275 0 -275 0 0 -1795 0
-1795 200 0 200 0 0 1425 0 1426 25 24 c32 33 84 34 112 3 12 -13 60 -84 108
-158 48 -74 120 -184 160 -245 40 -60 116 -177 167 -260 52 -82 149 -233 216
-335 67 -102 165 -254 219 -338 106 -165 331 -514 421 -652 31 -47 115 -177
187 -290 124 -192 402 -622 476 -736 19 -28 55 -85 80 -125 26 -41 99 -155
164 -254 64 -99 121 -190 126 -203 l9 -22 767 2 768 3 3 2533 2 2532 -1721 0
c-1692 0 -1721 0 -1716 -19z"/>
<path d="M3900 3805 l0 -966 142 -217 c78 -119 163 -251 190 -292 l48 -75 0
1258 0 1257 -190 0 -190 0 0 -965z"/>
<path d="M1762 2453 l3 -1258 198 -3 197 -2 0 962 0 963 -132 202 c-73 112
-160 245 -193 298 -33 52 -63 95 -67 95 -5 0 -7 -566 -6 -1257z"/>
</g>
</svg>
